# xmcd
#
# Track frame offsets: 
#        150
#        12042
#        24440
#        37617
#        49382
#        61182
#        75075
#        87917
#        100560
#        115520
#
# Disc length: 1685 seconds
#
# Revision: 2
# Processed by: cddbd v1.5.2PL0 Copyright (c) Steve Scherf et al.
# Submitted via: ExactAudioCopy v1.1
#
DISCID=5906930a
DTITLE=Various Artist - Sixteen Tons Of Country
DYEAR=1997
DGENRE=Country
TTITLE0=Tennessee Ernie Ford - Sixteen Tons
TTITLE1=Hank Thompson - The Wild Side Of Life
TTITLE2=Tex Williams - Smoke! Smoke! Smoke! (That Cigarette)
TTITLE3=George Jones - She Thinks I Still Care
TTITLE4=Wanda Jackson - In The Middle Of A Heartache
TTITLE5=Sonny James - It's The Little Things
TTITLE6=Tex Ritter - I'm Wasting My Tears On You
TTITLE7=Jack Guthrie and His Oklahomans - Oklahoma Hills
TTITLE8=Slim Whitman - Indian Love Call
TTITLE9=Faron Young - Hello Walls
EXTD=
EXTT0=Ford, Tennessee Ernie
EXTT1=Thompson, Hank
EXTT2=Williams, Tex
EXTT3=Jones, George
EXTT4=Jackson, Wanda
EXTT5=James, Sonny
EXTT6=Ritter, Tex
EXTT7=Guthrie, Jack and his Oklahomans
EXTT8=Whitman, Slim
EXTT9=Young, Faron
PLAYORDER=
